<svg width="81" height="87" viewBox="0 0 81 87" fill="none" xmlns="http://www.w3.org/2000/svg">
<path d="M78.8936 37.677C78.8936 37.677 79.8806 7.11903 75.3522 2.66655C70.8239 -1.78593 56.4188 17.5076 52.3936 18.0024C41.3936 15.677 31.8936 17.177 28.0559 18.0024C25.037 18.0024 9.92831 2.66651 4.39355 2.66651C-1.1412 2.66651 5.20689 28.3731 2.39358 49.677C0.761631 62.0351 4.28796 76.1765 12.3937 80.1282C28.0559 87.7637 55.3936 85.3046 66.3936 80.1282C71.8936 77.5399 81.8936 72.677 78.8936 49.677" stroke="white" stroke-width="3" stroke-linecap="round"/>
<path d="M36.1914 56.174L41.5 61L46.8086 56.174C46.8762 56.1125 46.8327 56 46.7413 56H41.5H36.2587C36.1673 56 36.1238 56.1125 36.1914 56.174Z" fill="white"/>
<path d="M41.5 61C41.5 61 37 67 30 63.5M41.5 61C41.5 61 46 67 53 64M41.5 61L36.1914 56.174C36.1238 56.1125 36.1673 56 36.2587 56H41.5H46.7413C46.8327 56 46.8762 56.1125 46.8086 56.174L41.5 61Z" stroke="white" stroke-width="2" stroke-linecap="round"/>
<path d="M55.8939 42.677C54.2667 42.677 53.3939 44.7244 53.3939 46.677C53.3939 48.6296 54.2667 50.677 55.8939 50.677C57.5211 50.677 58.3939 48.6296 58.3939 46.677C58.3939 44.7244 57.5211 42.677 55.8939 42.677Z" stroke="white" stroke-width="6" stroke-linejoin="round"/>
<path d="M28.3939 46.677C28.3939 44.7244 27.5211 42.677 25.8939 42.677C24.2667 42.677 23.3939 44.7244 23.3939 46.677C23.3939 48.6296 24.2667 50.677 25.8939 50.677C27.5211 50.677 28.3939 48.6296 28.3939 46.677Z" stroke="white" stroke-width="6" stroke-linejoin="round"/>
</svg>
