<svg width="67" height="100" viewBox="0 0 67 100" fill="none" xmlns="http://www.w3.org/2000/svg">
<g clip-path="url(#clip0_348_726)">
<path d="M8.33333 58.3333C6.1232 58.3333 4.00358 57.4554 2.44078 55.8926C0.877975 54.3297 0 52.2101 0 50C0 47.7899 0.877975 45.6702 2.44078 44.1074C4.00358 42.5446 6.1232 41.6667 8.33333 41.6667C10.5435 41.6667 12.6631 42.5446 14.2259 44.1074C15.7887 45.6702 16.6667 47.7899 16.6667 50C16.6667 52.2101 15.7887 54.3297 14.2259 55.8926C12.6631 57.4554 10.5435 58.3333 8.33333 58.3333ZM66.6667 50C66.6667 52.2101 65.7887 54.3297 64.2259 55.8926C62.6631 57.4554 60.5435 58.3333 58.3333 58.3333C56.1232 58.3333 54.0036 57.4554 52.4408 55.8926C50.878 54.3297 50 52.2101 50 50C50 47.7899 50.878 45.6702 52.4408 44.1074C54.0036 42.5446 56.1232 41.6667 58.3333 41.6667C60.5435 41.6667 62.6631 42.5446 64.2259 44.1074C65.7887 45.6702 66.6667 47.7899 66.6667 50ZM8.33333 16.6667C6.1232 16.6667 4.00358 15.7887 2.44078 14.2259C0.877975 12.6631 0 10.5435 0 8.33333C0 6.1232 0.877975 4.00358 2.44078 2.44078C4.00358 0.877975 6.1232 0 8.33333 0C10.5435 0 12.6631 0.877975 14.2259 2.44078C15.7887 4.00358 16.6667 6.1232 16.6667 8.33333C16.6667 10.5435 15.7887 12.6631 14.2259 14.2259C12.6631 15.7887 10.5435 16.6667 8.33333 16.6667ZM66.6667 8.33333C66.6667 10.5435 65.7887 12.6631 64.2259 14.2259C62.6631 15.7887 60.5435 16.6667 58.3333 16.6667C56.1232 16.6667 54.0036 15.7887 52.4408 14.2259C50.878 12.6631 50 10.5435 50 8.33333C50 6.1232 50.878 4.00358 52.4408 2.44078C54.0036 0.877975 56.1232 0 58.3333 0C60.5435 0 62.6631 0.877975 64.2259 2.44078C65.7887 4.00358 66.6667 6.1232 66.6667 8.33333ZM8.33333 100C6.1232 100 4.00358 99.122 2.44078 97.5592C0.877975 95.9964 0 93.8768 0 91.6667C0 89.4565 0.877975 87.3369 2.44078 85.7741C4.00358 84.2113 6.1232 83.3333 8.33333 83.3333C10.5435 83.3333 12.6631 84.2113 14.2259 85.7741C15.7887 87.3369 16.6667 89.4565 16.6667 91.6667C16.6667 93.8768 15.7887 95.9964 14.2259 97.5592C12.6631 99.122 10.5435 100 8.33333 100ZM58.3333 100C56.1232 100 54.0036 99.122 52.4408 97.5592C50.878 95.9964 50 93.8768 50 91.6667C50 89.4565 50.878 87.3369 52.4408 85.7741C54.0036 84.2113 56.1232 83.3333 58.3333 83.3333C60.5435 83.3333 62.6631 84.2113 64.2259 85.7741C65.7887 87.3369 66.6667 89.4565 66.6667 91.6667C66.6667 93.8768 65.7887 95.9964 64.2259 97.5592C62.6631 99.122 60.5435 100 58.3333 100Z" fill="#A0A0A0"/>
</g>
<defs>
<clipPath id="clip0_348_726">
<rect width="66.67" height="100" fill="white"/>
</clipPath>
</defs>
</svg>
